<svg width="24" height="24" viewBox="0 0 24 24" fill="none" xmlns="http://www.w3.org/2000/svg">
<path d="M12 0C18.6274 0 24 5.37258 24 12C24 18.6274 18.6274 24 12 24C5.37258 24 0 18.6274 0 12C0 5.37258 5.37258 0 12 0ZM12 4.33398C11.4477 4.33398 11 4.7817 11 5.33398V11H5.33301C4.78087 11.0002 4.33301 11.4478 4.33301 12C4.33301 12.5522 4.78087 12.9998 5.33301 13H11V18.667C11.0002 19.2191 11.4478 19.667 12 19.667C12.5522 19.667 12.9998 19.2191 13 18.667V13H18.666C19.2183 13 19.666 12.5523 19.666 12C19.666 11.4477 19.2183 11 18.666 11H13V5.33398C13 4.7817 12.5523 4.33398 12 4.33398Z" fill="white"/>
</svg>
